<?xml version="1.0" standalone="no"?>
<!DOCTYPE svg PUBLIC "-//W3C//DTD SVG 20010904//EN"
 "http://www.w3.org/TR/2001/REC-SVG-20010904/DTD/svg10.dtd">
<svg version="1.0" xmlns="http://www.w3.org/2000/svg"
 width="1248.000000pt" height="1248.000000pt" viewBox="0 0 1248.000000 1248.000000"
 preserveAspectRatio="xMidYMid meet">
<metadata>
Created by potrace 1.14, written by Peter Selinger 2001-2017
</metadata>
<g transform="translate(0.000000,1248.000000) scale(0.100000,-0.100000)"
fill="#000000" stroke="none">
<path d="M4075 9025 c-100 -25 -165 -49 -257 -96 -71 -36 -211 -127 -216 -140
-2 -5 -8 -9 -13 -9 -15 0 -144 -114 -208 -184 -20 -22 -48 -52 -63 -67 -64
-67 -258 -344 -258 -368 0 -6 -4 -11 -10 -11 -5 0 -10 -7 -10 -15 0 -8 -4 -15
-9 -15 -5 0 -11 -8 -15 -17 -3 -10 -14 -31 -24 -48 -36 -58 -162 -276 -162
-280 0 -3 -20 -39 -45 -81 -25 -41 -45 -78 -45 -81 0 -3 -9 -18 -21 -34 -11
-16 -22 -37 -23 -45 -1 -9 -8 -19 -15 -23 -7 -5 -12 -11 -11 -15 1 -8 -66
-130 -94 -171 -12 -16 -20 -32 -20 -35 1 -3 -4 -14 -11 -25 -35 -57 -122 -201
-135 -224 -31 -53 -135 -206 -142 -209 -5 -2 -8 -8 -8 -14 0 -6 -10 -22 -22
-37 -13 -15 -32 -40 -43 -55 -11 -16 -24 -33 -30 -40 -5 -6 -32 -38 -60 -71
-74 -88 -177 -188 -260 -253 -102 -78 -265 -154 -385 -178 -19 -4 -348 -8
-730 -10 -382 -1 -703 -3 -712 -3 -17 -1 -18 -66 -18 -1225 l0 -1224 50 -4
c28 -1 58 0 67 3 9 3 36 2 60 -1 24 -4 45 -4 47 -1 2 3 44 4 94 1 49 -3 102
-3 118 0 16 3 48 3 71 -1 24 -3 45 -4 48 -1 3 3 26 5 52 4 27 -1 74 -2 106 -3
32 0 60 1 63 4 3 2 21 1 40 -3 19 -4 36 -5 38 -1 5 8 82 5 96 -4 6 -3 10 -2
10 4 0 6 8 7 20 3 11 -4 48 -5 81 -2 33 3 65 3 71 -1 7 -4 16 -6 20 -3 4 3
171 7 370 9 200 3 379 7 398 9 19 2 71 7 115 10 79 6 92 8 150 21 155 35 460
170 523 232 7 7 17 13 22 13 5 0 15 6 22 13 7 6 42 35 78 62 133 103 316 298
452 485 77 106 148 209 148 215 0 3 17 31 39 63 64 95 111 172 111 181 0 5 6
14 14 20 8 7 21 26 30 44 9 18 41 72 71 121 30 49 55 90 55 92 0 5 135 210
151 229 8 9 42 44 75 79 102 103 189 133 268 94 54 -27 126 -102 183 -190 15
-24 31 -45 34 -48 4 -3 15 -21 26 -40 10 -19 30 -53 44 -75 14 -22 37 -59 50
-82 13 -23 41 -69 62 -103 20 -34 37 -66 37 -71 0 -5 5 -9 11 -9 5 0 8 -4 5
-9 -3 -4 3 -16 14 -26 11 -10 20 -22 20 -26 0 -5 23 -46 50 -93 28 -47 50 -87
50 -91 0 -3 5 -11 11 -18 12 -14 53 -80 54 -87 0 -3 31 -56 68 -118 37 -62 67
-117 67 -122 0 -6 4 -10 8 -10 5 0 16 -16 25 -35 9 -20 78 -139 152 -266 74
-127 135 -233 135 -235 0 -21 110 -165 175 -229 155 -155 341 -251 555 -289
92 -16 294 -15 365 3 113 27 220 75 308 137 26 19 52 34 57 34 6 0 10 7 10 15
0 8 5 15 11 15 20 0 173 153 266 266 86 106 229 291 360 469 344 464 563 712
713 807 173 110 328 82 457 -83 15 -20 36 -47 45 -60 160 -220 303 -410 343
-453 6 -6 39 -45 75 -85 99 -114 210 -218 315 -297 33 -25 67 -51 75 -58 48
-38 262 -157 360 -199 19 -8 56 -24 82 -36 26 -11 54 -21 62 -21 8 0 18 -5 21
-10 3 -5 16 -10 29 -10 12 0 26 -4 32 -8 9 -8 67 -29 101 -37 10 -3 36 -9 58
-15 36 -10 74 -20 145 -36 14 -3 34 -7 45 -9 11 -1 31 -5 45 -9 14 -3 41 -8
60 -10 19 -2 46 -7 60 -10 41 -9 110 -17 195 -22 44 -3 91 -7 105 -9 48 -9
317 -18 520 -18 191 0 419 6 755 19 77 2 177 6 223 8 45 2 82 7 82 12 0 5 -10
23 -22 39 -69 92 -132 183 -141 202 -6 13 -13 23 -17 23 -4 0 -10 8 -13 18 -4
9 -22 44 -42 77 -53 91 -150 295 -139 295 2 0 -2 12 -10 28 -18 35 -53 165
-62 228 -3 27 -8 52 -11 57 -15 25 -22 340 -10 467 9 96 24 182 41 245 1 6 8
30 15 55 7 25 19 59 27 77 8 17 14 34 14 38 0 21 140 275 182 330 4 6 35 48
69 95 34 47 67 90 75 96 8 6 14 14 14 17 0 3 11 23 26 44 23 34 24 38 7 44 -9
3 -218 6 -463 6 -406 1 -541 4 -625 18 -16 3 -41 7 -55 9 -246 40 -570 206
-820 421 -89 76 -244 239 -325 340 -22 28 -44 55 -50 62 -5 7 -16 19 -22 27
-7 8 -13 18 -13 22 0 4 -9 17 -19 28 -20 22 -221 315 -221 322 0 2 -16 27 -36
55 -19 28 -38 58 -42 67 -15 35 -175 279 -192 292 -3 3 -17 21 -30 40 -68 97
-335 380 -359 380 -6 0 -11 4 -11 9 0 8 -57 52 -130 101 -8 5 -32 21 -54 35
-38 26 -189 104 -203 106 -5 1 -19 6 -33 11 -26 11 -77 25 -120 34 -46 10
-219 12 -262 3 -76 -15 -90 -18 -127 -30 -73 -24 -253 -123 -297 -164 -6 -5
-34 -30 -63 -54 -88 -76 -246 -238 -301 -310 -14 -18 -32 -40 -39 -48 -8 -9
-43 -54 -78 -102 -35 -47 -70 -94 -78 -104 -8 -9 -15 -21 -15 -26 0 -5 -4 -11
-9 -13 -5 -1 -17 -17 -27 -34 -37 -61 -139 -216 -152 -230 -7 -8 -10 -14 -6
-14 4 0 0 -8 -8 -17 -22 -26 -118 -183 -118 -194 0 -5 -4 -9 -10 -9 -5 0 -10
-5 -10 -11 0 -6 -11 -25 -25 -43 -14 -18 -25 -36 -25 -40 0 -4 -8 -19 -19 -34
-10 -15 -36 -54 -56 -87 -161 -256 -286 -412 -342 -429 -13 -4 -23 -11 -23
-16 0 -14 -96 -42 -144 -42 -56 0 -126 33 -183 85 -50 46 -163 194 -163 213 0
7 -4 14 -8 16 -9 3 -19 21 -145 238 -11 19 -28 49 -38 65 -21 34 -29 50 -89
160 -23 44 -62 114 -85 155 -23 41 -45 82 -48 90 -4 8 -18 33 -30 55 -19 33
-71 127 -121 220 -6 11 -13 22 -16 25 -3 3 -14 23 -26 45 -94 180 -363 615
-385 623 -5 2 -9 8 -9 14 0 6 -10 23 -22 38 -24 30 -45 56 -81 104 -50 67
-136 152 -204 203 -73 54 -204 123 -233 123 -9 0 -21 5 -28 12 -7 7 -12 9 -12
6 0 -3 -26 0 -57 7 -88 21 -242 16 -348 -10z"/>
</g>
</svg>
